<svg xmlns:xlink="http://www.w3.org/1999/xlink" xmlns="http://www.w3.org/2000/svg" viewBox="0 0 48.422000000000004 48.28402366863905" fill="none" style="max-height: 500px" width="48.422000000000004" height="48.28402366863905"><clipPath id="a"><path d="m0 0h142v48h-142z"/></clipPath><g fill="#00a2ff" clip-path="url(#a)"><path d="m24.0896 0c-13.3055 0-24.0896 10.744-24.0896 24s10.7841 24 24.0896 24 24.0895-10.744 24.0895-24-10.784-24-24.0895-24zm4.5449 15.184 3.8704 7.08h-7.6846zm-18.4205.056 3.8383 7.024h-7.66053zm-.21683 15.344h-8.13424l4.07917-7.504h8.5518l-4.50476 7.504zm.67453-16.2.0241-.048h8.5357l4.2719 7.928h-8.5277zm13.4821 16.2h-4.3602l-4.304-7.376-.0723-.128h8.5197l.2088.392v-.016l3.9426 7.12h-3.9426zm4.6252-.456-3.8945-7.048h8.0058zm.3132-15.792h8.5197l4.312 7.928h-8.5036zm9.2263 16.24-3.8544-6.424-.5861-1.08h8.5036l4.0792 7.504h-8.1343z"/><path d="m56.1566 19.8562v-19.256021h5.5888v2.336001c.5541-.928 1.2446-1.648 2.0717-2.160001.8271-.512 1.7826-.76800029 2.8667-.76800029 1.357 0 2.5133.28000029 3.4689.84800029.9555.560001 1.6461 1.400001 2.0797 2.504001.5782-1.056 1.341-1.872 2.2805-2.464001.9475-.592 2.0476-.8800003 3.3003-.8800003 1.9111 0 3.3886.5520003 4.4324 1.6560013 1.0439 1.104 1.5659 2.72 1.5659 4.848v13.33602h-5.5888v-12.29602c0-.976-.2008-1.704-.6023-2.184-.4015-.472-1.0438-.712-1.9271-.712-.6023 0-1.1162.152-1.5498.448-.4256.304-.7628.768-1.0037 1.392s-.3614 1.408-.3614 2.328v11.01602h-5.5887v-12.28802c0-.952-.2088-1.672-.6264-2.16-.4175-.488-1.0278-.736-1.8308-.736-.6263 0-1.1643.152-1.606.448-.4416.304-.7869.76-1.0358 1.376s-.3774 1.376-.3774 2.272v11.08802h-5.5888z"/><path d="m95.5592 20.456c-2.0396 0-3.8223-.432-5.3399-1.296-1.5257-.864-2.69-2.064-3.509-3.608-.8191-1.544-1.2286-3.288-1.2286-5.248s.3935-3.712 1.1723-5.264c.7789-1.552 1.9272-2.784 3.4368-3.688 1.5096-.904 3.2923-1.352 5.3559-1.352 2.0637 0 3.6697.424 5.0593 1.28 1.381.856 2.425 2.064 3.131 3.632.707 1.568 1.06 3.416 1.06 5.544 0 .448-.016.84-.04 1.168h-13.8515c.1766 1.528.6825 2.648 1.5096 3.368.8271.712 1.9352 1.072 3.3244 1.072.9314 0 1.7183-.2 2.3607-.6s1.0841-.952 1.341-1.656h5.2118c-.482 2.208-1.534 3.864-3.172 4.984-1.6383 1.12-3.5735 1.672-5.8138 1.672zm3.774-12.408c-.1285-1.2-.53-2.096-1.2045-2.688-.6825-.592-1.5738-.88-2.682-.88-1.1081 0-2.0877.296-2.8666.88-.7789.592-1.3249 1.488-1.622 2.688z"/><path d="m56.1968 47.4v-26.432h5.5085v26.432z"/><path d="m64.5398 47.4v-19.248h5.5888v19.248zm2.8426-20.984c-.787 0-1.4615-.272-2.0155-.824-.5541-.552-.8271-1.2-.8271-1.96s.273-1.448.8271-1.984c.554-.536 1.2205-.8 2.0155-.8.7949 0 1.4052.264 1.9432.8s.803 1.192.803 1.984-.265 1.408-.803 1.96-1.1804.824-1.9432.824z"/><path d="m80.8001 48c-2.6418 0-4.7376-.6-6.2874-1.808-1.5497-1.2-2.3928-2.832-2.5454-4.888h5.5085c.1044.776.4496 1.4 1.0358 1.864.5942.464 1.3651.696 2.3206.696.8592 0 1.5498-.184 2.0798-.544s.7949-.824.7949-1.376c0-.472-.2248-.816-.6584-1.016-.4417-.2-1.2527-.44-2.4331-.712-.2007-.024-.4014-.064-.6022-.112-.2007-.048-.4015-.096-.6022-.152-1.5578-.376-2.8185-.792-3.7741-1.24-.9555-.448-1.6943-1.056-2.2242-1.824-.53-.768-.795-1.76-.795-2.992s.3292-2.36.9796-3.328c.6505-.968 1.59-1.712 2.8105-2.24s2.6579-.792 4.3201-.792c2.3367 0 4.2156.552 5.6209 1.656 1.4052 1.104 2.2483 2.696 2.5294 4.776h-5.3961c-.1044-.704-.3854-1.256-.8512-1.672-.4657-.416-1.1001-.624-1.903-.624-.7308 0-1.3491.16-1.8469.472-.5059.312-.7548.736-.7548 1.256s.2329.856.6986 1.056 1.349.44 2.6579.712c.0722.024.1606.04.2489.056s.1686.032.2489.056c1.7104.376 3.0835.776 4.1113 1.2s1.8308 1.024 2.3929 1.808c.5701.776.8512 1.808.8512 3.08 0 1.352-.3453 2.528-1.0359 3.512-.6905.992-1.6782 1.752-2.963 2.296-1.2848.536-2.7944.808-4.5288.808z"/><path d="m98.6588 47.96c-2.2404 0-3.8463-.504-4.8099-1.52-.9716-1.016-1.4534-2.488-1.4534-4.416v-9.44h-2.8667v-4.44h2.8667v-5.112h5.5887v5.112h3.8138v4.44h-3.8138v9.136c0 .528.1847.92.5461 1.184.3613.264.8752.392 1.5257.392.377 0 .939-.048 1.694-.152v4.32c-1.036.328-2.0634.488-3.0912.488z"/><path d="m112.358 47.9999c-2.04 0-3.823-.432-5.34-1.296-1.526-.864-2.69-2.064-3.509-3.608s-1.229-3.288-1.229-5.248.393-3.712 1.172-5.264 1.928-2.784 3.437-3.688c1.51-.904 3.292-1.352 5.356-1.352s3.67.424 5.059 1.28c1.381.856 2.425 2.064 3.132 3.632.706 1.568 1.059 3.416 1.059 5.544 0 .448-.016.84-.04 1.168h-13.851c.176 1.528.682 2.648 1.509 3.368.828.72 1.936 1.072 3.325 1.072.931 0 1.718-.2 2.361-.6.642-.4 1.084-.952 1.341-1.656h5.211c-.482 2.208-1.534 3.864-3.172 4.984-1.638 1.112-3.573 1.672-5.813 1.672zm3.774-12.408c-.129-1.2-.53-2.096-1.205-2.688-.682-.592-1.574-.88-2.682-.88s-2.088.296-2.867.88c-.778.592-1.324 1.488-1.622 2.688z"/><path d="m123.527 47.4v-19.248h5.589v2.48c.602-.976 1.381-1.736 2.32-2.272.94-.536 2.032-.808 3.261-.808 2.192 0 3.902.712 5.131 2.144 1.228 1.432 1.847 3.4 1.847 5.904v11.808h-5.589v-11.504c0-1.2-.281-2.12-.827-2.744-.554-.624-1.373-.944-2.449-.944-.731 0-1.374.2-1.928.6s-.987.96-1.3 1.672c-.314.712-.474 1.536-.474 2.464v10.456h-5.589z"/></g></svg>