<?xml version="1.0" encoding="iso-8859-1"?>
<!-- Uploaded to: SVG Repo, www.svgrepo.com, Generator: SVG Repo Mixer Tools -->
<svg fill="#000000" height="800px" width="800px" version="1.1" id="Layer_1" xmlns="http://www.w3.org/2000/svg" xmlns:xlink="http://www.w3.org/1999/xlink" 
	 viewBox="0 0 512 512" xml:space="preserve">
<g>
	<g>
		<path d="M381.516,154.251h-3.557c-7.072,0-12.807,5.735-12.807,12.807c0,7.072,5.734,12.807,12.807,12.807h3.557
			c7.072,0,12.807-5.735,12.807-12.807C394.323,159.986,388.588,154.251,381.516,154.251z"/>
	</g>
</g>
<g>
	<g>
		<path d="M421.005,154.251c-7.072,0-12.807,5.735-12.807,12.807c0,7.072,5.735,12.807,12.807,12.807
			c17.775,0,32.236,14.456,32.236,32.223v242.06c0,17.775-14.461,32.236-32.236,32.236H90.996
			c-17.775,0-32.237-14.461-32.237-32.236v-242.06c0-17.768,14.462-32.223,32.237-32.223h245.377
			c7.072,0,12.807-5.735,12.807-12.807c0-7.072-5.735-12.807-12.807-12.807H158.84l132.4-132.387
			c5.003-5.001,5.003-13.11,0.001-18.112c-5-5.001-13.108-5.001-18.112-0.001L122.615,154.251H90.996
			c-31.899,0-57.852,25.946-57.852,57.838v242.06c0,31.899,25.953,57.851,57.852,57.851h330.008
			c31.899,0,57.851-25.952,57.851-57.851v-242.06C478.856,180.197,452.904,154.251,421.005,154.251z"/>
	</g>
</g>
<g>
	<g>
		<path d="M413.538,213.165H98.462c-7.072,0-12.807,5.735-12.807,12.807v67.444c0,7.072,5.735,12.807,12.807,12.807h315.076
			c7.072,0,12.807-5.735,12.807-12.807v-67.444C426.345,218.9,420.61,213.165,413.538,213.165z M174.04,280.609h-62.77V238.78h62.77
			V280.609z M400.731,280.609H199.654V238.78h201.076V280.609z"/>
	</g>
</g>
<g>
	<g>
		<path d="M369.993,349.346c-25.599,0-46.427,20.827-46.427,46.427s20.827,46.427,46.427,46.427s46.427-20.827,46.427-46.427
			S395.592,349.346,369.993,349.346z M369.993,416.585c-11.475,0-20.812-9.337-20.812-20.812s9.337-20.812,20.812-20.812
			c11.475,0,20.812,9.337,20.812,20.812S381.468,416.585,369.993,416.585z"/>
	</g>
</g>
<g>
	<g>
		<path d="M256.647,328.854h-40.343H157.39h-40.357c-17.303,0-31.378,14.075-31.378,31.378v71.081
			c0,17.303,14.075,31.378,31.378,31.378h40.357h58.914h40.343c17.303,0,31.378-14.075,31.378-31.378v-71.081
			C288.025,342.929,273.95,328.854,256.647,328.854z M144.583,437.077h-27.55c-3.177,0-5.763-2.586-5.763-5.763v-71.081
			c0-3.177,2.586-5.763,5.763-5.763h27.55V437.077z M203.497,437.077h-33.299v-82.608h33.299V437.077z M262.411,431.313
			c0,3.177-2.586,5.763-5.763,5.763h-27.536v-82.608h27.536c3.178,0,5.763,2.584,5.763,5.763V431.313z"/>
	</g>
</g>
</svg>